<svg xmlns="http://www.w3.org/2000/svg" width="92" height="28" fill="none"><path fill="#fff" d="M15.41 0h4.1L4.374 27.48h14.11V28H0L15.135.52H.749V0H15.37v.08zm28.753 28H40.3l-3.113-9H26.033l-3.114 9h-.63l9.025-26.12-.67-1.88h3.863zM31.629 2.8 26.19 18.48h10.84zM67.696 28h-4.06l-2.562-5.88q-2.483-5.92-5.32-5.92-.394 0-.75.12-1.575.76-2.719 1.76-1.104.96-1.734 2.4V28h-3.626V0h6.74q5.91 0 9.065 1.68 3.192 1.68 3.192 5.52 0 2.36-1.025 3.84a7 7 0 0 1-2.562 2.28q-1.497.8-4.06 1.72-.709.24-2.127.8 1.103-.2 1.93-.2 2.13 0 3.745 1.36 1.655 1.32 3.035 4.44zM50.55 19.56a7.6 7.6 0 0 1 2.128-2.44q1.3-.96 3.43-2 2.048-1.04 3.27-1.88t2.05-2.28q.828-1.48.828-3.76 0-3.64-2.208-5.08Q57.881.64 53.663.64H50.55zm25.133 7.12q1.064.4 2.246.4 2.956 0 5.479-2.56 2.522-2.56 3.98-6.44 1.499-3.92 1.498-7.72 0-3.64-1.497-6.2T82.896.96a8 8 0 0 0-1.34-.12q-2.995 0-5.44 2.52-2.443 2.52-3.823 6.4t-1.38 7.68q0 3.4 1.183 5.92 1.183 2.48 3.587 3.32m4.257 1.28q-3.705 0-6.464-1.8-2.76-1.84-4.257-5t-1.497-7.04q0-4.12 1.655-7.32 1.655-3.24 4.493-5Q76.708 0 80.215 0q3.587 0 6.267 1.68t4.1 4.64Q92 9.24 92 12.92q0 4.16-1.734 7.6t-4.533 5.44q-2.758 2-5.793 2"/></svg>